<svg xmlns="http://www.w3.org/2000/svg" width="512" height="512" viewBox="0 0 512 512" role="img" aria-label="Juniper & Clay icon">
  <defs>
    <linearGradient id="bg" x1="0" y1="0" x2="1" y2="1">
      <stop offset="0" stop-color="#fb923c" />
      <stop offset="1" stop-color="#f97316" />
    </linearGradient>
  </defs>
  <rect x="48" y="48" width="416" height="416" rx="96" fill="url(#bg)" />
  <path
    d="M176 214c0-38 31-70 70-70h20c39 0 70 32 70 70v8c0 26-14 49-35 61v33c0 16-13 29-29 29h-32c-16 0-29-13-29-29v-33c-21-12-35-35-35-61v-8z"
    fill="#111827"
    opacity="0.92"
  />
  <path
    d="M196 368c18 22 42 34 60 34s42-12 60-34"
    fill="none"
    stroke="#111827"
    stroke-width="20"
    stroke-linecap="round"
    opacity="0.92"
  />
</svg>

